<?xml version="1.0" standalone="no"?><!DOCTYPE svg PUBLIC "-//W3C//DTD SVG 1.1//EN" "http://www.w3.org/Graphics/SVG/1.1/DTD/svg11.dtd"><svg t="1715669218426" class="icon" viewBox="0 0 1024 1024" version="1.1" xmlns="http://www.w3.org/2000/svg" p-id="69530" xmlns:xlink="http://www.w3.org/1999/xlink" width="28" height="28"><path d="M669.538462 78.769231m39.384615 0l275.692308 0q39.384615 0 39.384615 39.384615l0 0q0 39.384615-39.384615 39.384616l-275.692308 0q-39.384615 0-39.384615-39.384616l0 0q0-39.384615 39.384615-39.384615Z" fill="#FFA900" p-id="69531"></path><path d="M543.940923 140.051692l53.287385 110.119385c14.178462 31.940923 46.158769 53.248 81.683692 58.604308l118.941538 17.723077c88.812308 12.445538 122.564923 120.753231 60.416 184.713846l-87.04 83.416615c-24.812308 24.891077-37.257846 60.376615-31.940923 94.129231l19.53477 118.941538a107.716923 107.716923 0 0 1-156.278154 113.664l-106.535385-55.020307a109.095385 109.095385 0 0 0-99.446154 0l-108.307692 56.792615a107.716923 107.716923 0 0 1-156.278154-113.624615l19.534769-118.980923a98.343385 98.343385 0 0 0-31.940923-94.129231L32.531692 511.212308C-31.310769 447.251692 4.214154 340.716308 92.947692 326.498462l118.941539-17.723077a108.189538 108.189538 0 0 0 81.683692-58.604308l53.287385-110.119385c44.386462-79.872 156.238769-79.872 197.080615 0" fill="#FFD420" p-id="69532"></path><path d="M350.404923 140.051692L297.117538 250.171077c-14.178462 31.940923-46.158769 53.248-81.683692 58.604308l-118.941538 17.723077C41.432615 335.399385 5.907692 379.785846 4.135385 425.944615 20.125538 338.944 199.483077 406.449231 281.206154 413.538462c83.456 8.861538 106.535385-65.732923 106.535384-65.732924s17.723077-88.772923 39.069539-200.62523c15.950769-90.584615 76.327385-51.515077 97.673846-35.524923-49.742769-51.475692-138.515692-40.841846-174.040615 28.396307" fill="#FFE468" p-id="69533"></path><path d="M501.366154 756.224c-65.732923-44.386462-124.337231 0-124.337231 0s-63.921231 56.832-138.476308 127.842462c-76.406154 71.049846-104.763077-30.168615-104.763077-30.168616 15.950769 63.921231 90.545231 102.990769 154.466462 67.465846l108.307692-55.020307a109.095385 109.095385 0 0 1 99.446154 0l108.307692 56.792615a105.550769 105.550769 0 0 0 134.971077-28.396308c1.772308-7.089231 3.544615-12.445538 7.089231-17.762461-60.376615 58.604308-177.545846-76.366769-245.051077-120.753231" fill="#FFA900" p-id="69534"></path><path d="M405.464615 152.497231c14.178462 3.544615 23.079385 15.990154 19.53477 31.980307l-24.891077 111.852308c-3.544615 14.178462-15.950769 23.079385-31.940923 19.534769-14.178462-3.544615-23.079385-15.990154-19.53477-31.980307l24.851693-113.624616c3.544615-14.178462 17.762462-21.307077 31.980307-17.762461" fill="#FFF2CA" p-id="69535"></path><path d="M827.076923 669.538462m39.384615 0l118.153847 0q39.384615 0 39.384615 39.384615l0 0q0 39.384615-39.384615 39.384615l-118.153847 0q-39.384615 0-39.384615-39.384615l0 0q0-39.384615 39.384615-39.384615Z" fill="#FFA900" p-id="69536"></path><path d="M905.846154 236.307692h78.769231a39.384615 39.384615 0 0 1 0 78.769231h-78.769231a39.384615 39.384615 0 0 1 0-78.769231z" fill="#FFA900" p-id="69537"></path><path d="M866.461538 827.076923m39.384616 0l78.769231 0q39.384615 0 39.384615 39.384615l0 0q0 39.384615-39.384615 39.384616l-78.769231 0q-39.384615 0-39.384616-39.384616l0 0q0-39.384615 39.384616-39.384615Z" fill="#FFA900" p-id="69538"></path></svg>