<?xml version="1.0" standalone="no"?><!DOCTYPE svg PUBLIC "-//W3C//DTD SVG 1.1//EN" "http://www.w3.org/Graphics/SVG/1.1/DTD/svg11.dtd"><svg t="1715734030651" class="icon" viewBox="0 0 1024 1024" version="1.1" xmlns="http://www.w3.org/2000/svg" p-id="11245" width="28" height="28" xmlns:xlink="http://www.w3.org/1999/xlink"><path d="M236.990623 156.982644a149.814661 149.814661 0 0 0 12.557972 60.676863 162.714631 162.714631 0 0 0 33.443924 50.097886 124.765717 124.765717 0 0 0 52.281881 33.442925 149.268662 149.268662 0 0 0 60.675863 12.558971 149.746661 149.746661 0 0 0 60.676862-12.558971 172.33761 172.33761 0 0 0 52.281882-33.442925 131.999701 131.999701 0 0 0 33.442924-50.097886 194.17956 194.17956 0 0 0 10.374977-60.676863 149.814661 149.814661 0 0 0-12.558972-60.675862 162.441632 162.441632 0 0 0-33.442924-50.097887 124.697717 124.697717 0 0 0-52.213882-33.443924A149.336662 149.336662 0 0 0 393.834268 0.207a149.814661 149.814661 0 0 0-60.675863 12.557971 172.405609 172.405609 0 0 0-52.281881 33.443924 131.932701 131.932701 0 0 0-33.443925 50.097887 223.731493 223.731493 0 0 0-10.373976 60.675862zM15.579125 462.071953a134.729695 134.729695 0 0 0 10.373976 50.097887 124.629718 124.629718 0 0 0 29.211934 43.8859 124.697717 124.697717 0 0 0 43.818901 29.211934 143.329675 143.329675 0 0 0 50.096886 10.374976 134.799695 134.799695 0 0 0 50.097887-10.374976 124.765717 124.765717 0 0 0 43.8179-29.211934 124.629718 124.629718 0 0 0 29.211934-43.8859 143.329675 143.329675 0 0 0 10.374977-50.097887 134.593695 134.593695 0 0 0-10.374977-50.096886 124.560718 124.560718 0 0 0-29.211934-43.886901 124.560718 124.560718 0 0 0-43.8179-29.211934 143.329675 143.329675 0 0 0-50.097887-10.373976 134.729695 134.729695 0 0 0-50.096886 10.373976 124.560718 124.560718 0 0 0-43.818901 29.211934 124.560718 124.560718 0 0 0-29.211934 43.886901 99.034776 99.034776 0 0 0-10.373976 50.096886zM134.610855 800.468186a119.30573 119.30573 0 0 0 8.394981 46.002896 118.349732 118.349732 0 0 0 25.047943 37.606915 98.488777 98.488777 0 0 0 39.72291 25.048943 112.411745 112.411745 0 0 0 46.002896 8.394981 112.821744 112.821744 0 0 0 46.001896-8.394981 159.369639 159.369639 0 0 0 39.72291-25.049943 107.497756 107.497756 0 0 0 25.048943-37.605915 112.548745 112.548745 0 0 0 8.394981-46.002896 119.37373 119.37373 0 0 0-8.394981-46.001895 118.213732 118.213732 0 0 0-25.048943-37.606915 98.488777 98.488777 0 0 0-39.72291-25.049943 112.411745 112.411745 0 0 0-46.001896-8.393981 112.821744 112.821744 0 0 0-46.002896 8.394981 159.437639 159.437639 0 0 0-39.72291 25.048943 107.497756 107.497756 0 0 0-25.047943 37.606915 179.981592 179.981592 0 0 0-8.394981 46.001895zM456.354126 921.617912a104.699763 104.699763 0 0 0 29.211934 73.166834 104.494763 104.494763 0 0 0 73.166834 29.211934 104.699763 104.699763 0 0 0 73.166834-29.211934 104.494763 104.494763 0 0 0 29.211934-73.166834 104.426763 104.426763 0 0 0-29.211934-73.166834 104.426763 104.426763 0 0 0-73.166834-29.211934 104.426763 104.426763 0 0 0-73.166834 29.211934 115.073739 115.073739 0 0 0-29.211934 73.166834zM727.999511 800.468186a98.215777 98.215777 0 0 0 25.048943 62.655858 88.728799 88.728799 0 0 0 62.655858 25.048944 98.215777 98.215777 0 0 0 62.655858-25.048944 88.728799 88.728799 0 0 0 25.047943-62.655858 98.215777 98.215777 0 0 0-25.047943-62.655858 88.728799 88.728799 0 0 0-62.655858-25.048943 98.215777 98.215777 0 0 0-62.655858 25.049943 98.215777 98.215777 0 0 0-25.049943 62.654858z m125.311716-225.642488a76.374827 76.374827 0 0 0 22.932948 54.601876 75.828828 75.828828 0 0 0 54.601876 22.932948 76.374827 76.374827 0 0 0 54.601876-22.932948 75.828828 75.828828 0 0 0 22.932948-54.601876 75.828828 75.828828 0 0 0-22.932948-54.260877 75.759828 75.759828 0 0 0-54.601876-22.932948 76.374827 76.374827 0 0 0-54.601876 22.932948 79.65082 79.65082 0 0 0-22.932948 54.259877z m-8.394981-210.969522a57.059871 57.059871 0 0 0 56.376872 56.376872 57.127871 57.127871 0 0 0 56.375872-56.376872 57.127871 57.127871 0 0 0-56.375872-56.375873 57.19587 57.19587 0 0 0-56.376872 56.375873zM732.162501 213.700516a37.743914 37.743914 0 0 0 12.558972 29.212934 40.951907 40.951907 0 0 0 29.211934 12.557971 37.743914 37.743914 0 0 0 29.211933-12.557971 40.951907 40.951907 0 0 0 12.558972-29.212934 37.743914 37.743914 0 0 0-12.558972-29.211934 40.951907 40.951907 0 0 0-29.211933-12.557972 37.743914 37.743914 0 0 0-29.211934 12.557972 34.671921 34.671921 0 0 0-12.558972 29.211934z m0 0" fill="#137BD3" p-id="11246"></path></svg>