<?xml version="1.0" standalone="no"?><!DOCTYPE svg PUBLIC "-//W3C//DTD SVG 1.1//EN" "http://www.w3.org/Graphics/SVG/1.1/DTD/svg11.dtd"><svg t="1715915724155" class="icon" viewBox="0 0 1024 1024" version="1.1" xmlns="http://www.w3.org/2000/svg" p-id="6915" xmlns:xlink="http://www.w3.org/1999/xlink" width="28" height="28"><path d="M653.88544 0a92.16 92.16 0 0 1 65.09568 26.9312l187.61728 187.21792a92.16 92.16 0 0 1 27.05408 65.2288v120.6272A80.10752 80.10752 0 0 1 1013.76 480.09216v319.7952a80.10752 80.10752 0 0 1-77.55776 80.06656l-2.54976 0.03072v48.00512c0 53.02272-43.02848 96-96.12288 96H196.7104c-53.0944 0-96.12288-42.97728-96.12288-96v-48.00512A80.10752 80.10752 0 0 1 20.48 799.8976v-319.7952a80.10752 80.10752 0 0 1 77.55776-80.06656l2.54976-0.04096V96C100.58752 42.97728 143.616 0 196.7104 0h457.17504zM837.5296 879.99488H196.7104v17.28512a30.72 30.72 0 0 0 30.72 30.72h579.3792a30.72 30.72 0 0 0 30.72-30.72v-17.28512z m-372.736-323.9936c-20.11136 0-36.352 4.82304-48.72192 14.46912-12.36992 9.6256-18.56512 22.17984-18.56512 37.632 0 8.76544 2.21184 16.27136 6.64576 22.49728 4.42368 6.22592 11.1616 11.24352 20.24448 15.07328 2.32448 0.9728 5.59104 2.28352 9.78944 3.9424 16.72192 6.66624 25.088 13.86496 25.088 21.59616 0 6.144-3.15392 11.02848-9.45152 14.62272-6.2976 3.60448-14.92992 5.39648-25.87648 5.39648-6.00064 0-12.1344-0.8192-18.39104-2.46784a103.39328 103.39328 0 0 1-19.4048-7.424l-9.22624 32.96256c8.2432 2.9184 16.81408 5.12 25.7024 6.57408a171.3152 171.3152 0 0 0 27.8528 2.2016c22.86592 0 40.98048-5.20192 54.33344-15.58528 13.34272-10.38336 20.0192-24.32 20.0192-41.78944 0-9.5232-2.39616-17.36704-7.19872-23.52128-4.80256-6.144-13.83424-12.4416-27.11552-18.8928a196.47488 196.47488 0 0 0-10.79296-4.73088c-11.40736-4.72064-17.1008-9.97376-17.1008-15.74912 0-5.3248 2.52928-9.39008 7.58784-12.20608 5.0688-2.80576 12.35968-4.21888 21.88288-4.21888 6.2976 0 12.45184 0.65536 18.45248 1.96608 6.00064 1.32096 11.9296 3.2768 17.77664 5.90848l9.90208-31.16032c-6.37952-2.32448-14.08-4.096-23.12192-5.28384a231.79264 231.79264 0 0 0-30.3104-1.80224z m163.2256-0.21504c-16.42496 0-30.6176 2.23232-42.57792 6.69696-11.96032 4.4544-22.6304 11.53024-32.01024 21.1968-7.79264 8.02816-13.88544 17.70496-18.2784 29.0304a96.64512 96.64512 0 0 0-6.58432 35.21536c0 23.552 7.03488 41.96352 21.0944 55.23456 14.06976 13.27104 33.65888 19.9168 58.7776 19.9168 6.912 0 13.99808-0.512 21.26848-1.52576a216.2688 216.2688 0 0 0 22.60992-4.44416l4.05504-36.89472a99.61472 99.61472 0 0 1-19.4048 7.424 74.5472 74.5472 0 0 1-18.8416 2.47808c-14.0288 0-25.12896-3.69664-33.30048-11.08992-8.18176-7.38304-12.26752-17.37728-12.26752-29.97248 0-19.3536 5.39648-34.48832 16.19968-45.39392 10.8032-10.91584 25.83552-16.37376 45.11744-16.37376a75.776 75.776 0 0 1 20.19328 2.59072 66.8672 66.8672 0 0 1 17.82784 7.87456l10.57792-32.512a208.72192 208.72192 0 0 0-28.12928-7.08608 152.59648 152.59648 0 0 0-26.3168-2.36544z m-287.21152 3.70688h-52.98176L193.32096 719.36h44.89216l19.11808-34.08896h62.6688l4.15744 34.08896h42.41408l-25.76384-159.86688z m407.81824 0h-42.63936L671.8976 719.36h42.63936l34.08896-159.86688z m76.26752 0h-42.62912l-34.0992 159.86688h42.6496l34.07872-159.86688z m-515.69664 31.2832l7.64928 64.34816h-43.08992l35.44064-64.34816zM608.33792 88.32H227.4304a30.72 30.72 0 0 0-30.72 30.72v280.95488h640.8192v-81.5616H700.52864c-50.8928-0.01024-92.14976-41.2672-92.16-92.16l-0.03072-137.95328z m96.12288 59.84256v58.91072a15.36 15.36 0 0 0 15.36 15.36h59.0848l-74.4448-74.27072z" fill="#1B8ADD" p-id="6916"></path></svg>