<?xml version="1.0" standalone="no"?><!DOCTYPE svg PUBLIC "-//W3C//DTD SVG 1.1//EN" "http://www.w3.org/Graphics/SVG/1.1/DTD/svg11.dtd"><svg t="1715658789194" class="icon" viewBox="0 0 1024 1024" version="1.1" xmlns="http://www.w3.org/2000/svg" p-id="40878" xmlns:xlink="http://www.w3.org/1999/xlink" width="28" height="28"><path d="M95.616 717.525333a452.181333 452.181333 0 0 1-51.626667-208.64A463.402667 463.402667 0 0 1 509.866667 47.957333c71.594667 0.128 142.165333 16.725333 206.250666 48.597334 115.797333-60.672 196.266667-70.186667 239.061334-28.16 43.136 43.093333 32.64 127.573333-30.208 244.437333a1429.546667 1429.546667 0 0 1-193.962667 266.325333 1494.528 1494.528 0 0 1-74.666667 80.64 1404.928 1404.928 0 0 1-97.024 88.704c-151.765333 132.138667-315.776 232.661333-419.029333 232.661334a97.28 97.28 0 0 1-71.765333-25.941334c-42.112-42.624-32.725333-122.709333 27.050666-237.696z m212.352-225.92a61.269333 61.269333 0 0 0 61.184-61.184c0-33.834667-27.392-61.226667-61.184-61.269333a61.312 61.312 0 0 0-61.226667 61.269333 61.269333 61.269333 0 0 0 61.226667 61.184z m61.226667-244.906666a122.624 122.624 0 0 0 122.496 122.453333 122.453333 122.453333 0 1 0-122.538667-122.453333h0.042667z m325.333333 453.76a1651.328 1651.328 0 0 0 261.973333-331.306667A456.533333 456.533333 0 0 1 981.333333 517.162667C979.968 774.826667 769.877333 982.613333 512.170667 981.333333c-48.512 0-96.768-7.424-143.018667-22.101333h0.042667a1727.274667 1727.274667 0 0 0 325.333333-258.773333z" fill="#665CFF" p-id="40879"></path></svg>