<?xml version="1.0" standalone="no"?><!DOCTYPE svg PUBLIC "-//W3C//DTD SVG 1.1//EN" "http://www.w3.org/Graphics/SVG/1.1/DTD/svg11.dtd"><svg t="1715568181928" class="icon" viewBox="0 0 1024 1024" version="1.1" xmlns="http://www.w3.org/2000/svg" p-id="32231" width="30" height="30" xmlns:xlink="http://www.w3.org/1999/xlink"><path d="M620.307382 846.325421v166.141923a514.143973 514.143973 0 0 1-216.573292 0V846.325421a351.022812 351.022812 0 0 0 216.573292 0z m379.284859-177.661779a513.171185 513.171185 0 0 1-330.952663 330.901463v-173.002637a352.76359 352.76359 0 0 0 158.001225-157.950026h172.951438z m-802.140373 0a352.76359 352.76359 0 0 0 157.950026 157.950025v172.951438a513.171185 513.171185 0 0 1-330.952663-330.952663h173.002637zM512.020736 210.480569c36.658742 0 71.781503 6.553518 104.293096 18.534168A108.440244 108.440244 0 0 1 512.020736 308.168948a108.03065 108.03065 0 0 1-82.482169-38.245922l-35.634754 32.613992A156.260447 156.260447 0 0 0 512.020736 356.501144a156.874839 156.874839 0 0 0 148.478144-106.853065 301.308234 301.308234 0 0 1 134.500719 366.587418 108.133048 108.133048 0 1 1-40.857089-186.775265l-32.665192-35.583555A156.260447 156.260447 0 0 0 667.564392 511.9936c0 68.965538 44.79944 127.588805 106.801865 148.478144a301.308234 301.308234 0 0 1-366.587418 134.449519A108.491444 108.491444 0 0 1 512.020736 715.818252c33.023587 0 62.616817 14.847814 82.482169 38.245922l35.634755-32.613992A156.260447 156.260447 0 0 0 512.020736 667.486056a156.874839 156.874839 0 0 0-148.478144 106.853065 301.308234 301.308234 0 0 1-134.449519-366.587418A108.491444 108.491444 0 0 1 308.196084 511.9936c0 33.023587-14.847814 62.616817-38.245922 82.482169l32.613992 35.634755A156.260447 156.260447 0 0 0 356.52828 511.9936a156.874839 156.874839 0 0 0-106.853065-148.478144A301.308234 301.308234 0 0 1 512.020736 210.531768z m500.473744 193.175185a513.990375 513.990375 0 0 1 0 216.573293H846.352557a351.022812 351.022812 0 0 0 0-216.573293h166.141923z m-834.805565 0a351.125211 351.125211 0 0 0 0 216.573293H11.546992a513.529581 513.529581 0 0 1 0-216.573293zM668.690778 24.422095a513.171185 513.171185 0 0 1 330.901463 330.952663h-173.002637a352.76359 352.76359 0 0 0-157.950026-158.001225V24.422095z m-313.288884 0v173.002637A352.76359 352.76359 0 0 0 197.451868 355.323558H24.449231A513.171185 513.171185 0 0 1 355.401894 24.422095zM512.020736 0c37.170735 0 73.368683 3.99355 108.286646 11.519856V177.661779a351.022812 351.022812 0 0 0-216.573292 0V11.519856A514.041574 514.041574 0 0 1 512.020736 0z" fill="#31DEC3" p-id="32232"></path></svg>