<?xml version="1.0" standalone="no"?><!DOCTYPE svg PUBLIC "-//W3C//DTD SVG 1.1//EN" "http://www.w3.org/Graphics/SVG/1.1/DTD/svg11.dtd"><svg t="1715669591943" class="icon" viewBox="0 0 1024 1024" version="1.1" xmlns="http://www.w3.org/2000/svg" p-id="72670" xmlns:xlink="http://www.w3.org/1999/xlink" width="28" height="28"><path d="M728.62224 607.98518a125.756935 125.756935 0 0 1 105.917418 193.915274l-14.719641 23.039438-23.039439 14.719641A125.756935 125.756935 0 1 1 728.62224 607.98518m0-95.99766a221.754595 221.754595 0 1 0 119.997075 408.310048l89.917808 89.917808a47.038853 47.038853 0 1 0 66.558378-66.558378l-89.917808-89.917808A221.754595 221.754595 0 0 0 728.62224 511.98752zM191.99532 0H63.99844C28.799298 0 0 38.079072 0 85.437917v853.099206C0 985.895969 28.799298 1023.975041 63.99844 1023.975041h127.99688c35.199142 0 63.99844-38.079072 63.99844-85.437918V85.437917C255.99376 38.079072 227.194462 0 191.99532 0z m0 447.98908H63.99844a31.99922 31.99922 0 0 1 0-63.99844h127.99688a31.99922 31.99922 0 0 1 0 63.99844z m0-159.9961H63.99844a31.99922 31.99922 0 0 1 0-63.99844h127.99688a31.99922 31.99922 0 0 1 0 63.99844zM1023.975041 575.98596V47.99883a47.99883 47.99883 0 0 0-95.99766 0v443.189197A319.9922 319.9922 0 0 1 1023.975041 575.98596z" p-id="72671" fill="#13227a"></path><path d="M962.216546 1021.735095a47.038853 47.038853 0 0 0 13.759665 2.239946 47.99883 47.99883 0 0 0 47.99883-47.99883V959.976601a319.9922 319.9922 0 0 1-61.758495 61.758494zM447.98908 767.98128a319.9922 319.9922 0 0 1 127.99688-255.99376V85.437917C575.98596 38.079072 547.186662 0 511.98752 0h-127.99688c-35.199142 0-63.99844 38.079072-63.99844 85.437917v853.099206c0 47.038853 28.799298 85.437917 63.99844 85.437918h127.99688a55.038658 55.038658 0 0 0 40.63901-19.839517A319.9922 319.9922 0 0 1 447.98908 767.98128zM383.99064 223.99454h127.99688a31.99922 31.99922 0 0 1 0 63.99844h-127.99688a31.99922 31.99922 0 0 1 0-63.99844z m-31.99922 191.99532a31.99922 31.99922 0 0 1 31.99922-31.99922h127.99688a31.99922 31.99922 0 0 1 0 63.99844h-127.99688a31.99922 31.99922 0 0 1-31.99922-31.99922zM735.98206 449.589041V47.99883a47.99883 47.99883 0 0 0-95.99766 0v426.869595a317.752255 317.752255 0 0 1 95.99766-25.279384zM863.978941 462.708721V31.99922a31.99922 31.99922 0 0 0-63.998441 0v417.589821a319.9922 319.9922 0 0 1 63.998441 13.11968z" p-id="72672" fill="#13227a"></path></svg>