<?xml version="1.0" standalone="no"?><!DOCTYPE svg PUBLIC "-//W3C//DTD SVG 1.1//EN" "http://www.w3.org/Graphics/SVG/1.1/DTD/svg11.dtd"><svg t="1715675097999" class="icon" viewBox="0 0 1024 1024" version="1.1" xmlns="http://www.w3.org/2000/svg" p-id="81604" xmlns:xlink="http://www.w3.org/1999/xlink" width="28" height="28"><path d="M409.605803 853.333333v170.666667L68.272469 853.333333v-204.8h887.466667v204.8H409.605803zM68.272469 170.666667h546.133334V0l341.333333 170.666667v204.8H68.272469V170.666667z" fill="#34B8FF" p-id="81605"></path><path d="M900.272469 691.336533l-89.6-149.333333 6.0416 145.271467-95.6416 4.061866v-33.518933c-20.548267 24.4736-62.8736 33.8944-97.0752 33.8944-94.754133 0-132.9152-54.101333-146.397866-113.7664 3.310933 20.855467 4.539733 41.2672 4.539733 53.6576 0 52.9408-138.376533 60.1088-117.009067 60.1088-29.2864 0-125.781333 9.079467-151.790933-30.242133-9.1136-13.789867 0.477867-102.0928 0-119.466667l26.3168-26.3168c-10.888533-0.136533-21.777067 0.136533-29.525333-3.003733l-1.604267 91.716266c0 21.777067-2.6624 38.638933-7.953067 50.5856-5.3248 11.946667-13.7216 21.060267-25.224533 27.306667-11.502933 6.280533-24.9856 9.4208-40.482133 9.4208-23.005867 0-23.517867 3.652267-40.994134-0.375467C45.983403 680.311467 33.661269 567.9104 34.139136 542.0032h59.733333c1.809067 43.076267 29.866667 129.979733 29.866667 29.866667v-238.933334H213.339136l-2.218667 124.552534c0.8192-1.774933 1.3312-3.208533 2.218667-5.085867 8.362667-17.442133 19.8656-115.5072 29.866667-89.6 5.632 14.5408 71.953067-29.866667 89.6-29.866667 19.421867 0 74.752 23.6544 89.6 29.866667 14.848 6.212267 21.879467 47.650133 29.866666 59.733333 7.9872 12.0832 1.297067 62.600533 1.877334 77.858134l-14.097067 1.058133c3.822933 3.140267 7.816533 6.5536 12.219733 10.683733 10.308267 9.762133 17.1008 27.7504 21.674667 47.3088-9.4208-65.501867 6.621867-131.7888 8.192-136.9088 23.995733-78.848 82.500267-89.6 119.466667-89.6 24.200533 0 101.9904 15.086933 119.466666 59.733334a4.164267 4.164267 0 0 1 0-3.140267V332.936533h89.6l59.733334 149.333334V332.936533h119.432533l0.1024 354.338134-89.668267 4.061866zM272.594603 526.7456c-5.5296-8.669867-16.554667-10.4448-28.3648-10.888533 11.025067 64.9216 93.320533 75.776 88.576 56.0128 7.304533 30.5152 62.907733 8.738133 18.363733-4.642134-42.837333-12.868267-65.194667-19.456-78.574933-40.482133z m130.1504-61.1328c-10.308267-8.3968-25.531733-12.5952-45.6704-12.5952-20.957867 0-6.144 25.770667 5.597866 29.252267 21.6064 6.382933 30.481067-6.8608 53.589334 3.515733-3.106133-8.021333-7.2704-15.086933-13.5168-20.1728z m221.5936-13.482667c-58.709333-6.109867-82.466133 37.000533-82.466134 89.873067 0 0 18.158933 24.849067 59.733334 29.866667 45.499733 5.461333 27.784533 4.676267 29.866666-29.866667 2.525867-42.222933 29.184-86.084267-7.133866-89.873067z" fill="#FFFFFF" p-id="81606"></path><path d="M922.459136 641.604267l-134.7584-201.591467v201.591467h-32.529067v-256.546134h34.816l134.7584 201.4208v-201.4208h32.529067v256.546134h-34.816z m-261.085867-11.4688a127.5904 127.5904 0 0 1-62.293333 15.837866c-24.1664 0-45.738667-5.8368-64.750933-17.5104a112.64 112.64 0 0 1-43.2128-47.752533 144.964267 144.964267 0 0 1-14.711467-64.068267c0-42.564267 11.434667-75.912533 34.304-100.010666 22.869333-24.064 52.360533-36.113067 88.541867-36.113067 23.688533 0 45.021867 5.632 64.034133 16.964267 19.012267 11.298133 33.518933 27.101867 43.485867 47.342933 10.001067 20.241067 14.984533 43.178667 14.984533 68.846933 0 26.0096-5.256533 49.288533-15.7696 69.8368a107.383467 107.383467 0 0 1-44.612267 46.626134z m14.779734-171.3152a81.373867 81.373867 0 0 0-30.958934-36.215467 83.729067 83.729067 0 0 0-45.7728-12.868267c-24.029867 0-44.714667 8.260267-62.020266 24.746667-17.339733 16.520533-26.0096 44.066133-26.0096 82.705067 0 30.890667 8.328533 55.261867 24.951466 73.045333 16.622933 17.783467 37.4784 26.692267 62.5664 26.692267 25.531733 0 46.557867-8.977067 63.0784-26.965334 16.4864-17.954133 24.746667-43.451733 24.746667-76.458666 0-20.8896-3.515733-39.1168-10.581333-54.6816z m-336.145067 31.3344c27.579733 6.212267 46.4896 11.6736 56.763733 16.349866 14.9504 6.894933 25.975467 15.598933 33.0752 26.146134 7.133867 10.581333 10.683733 22.7328 10.683734 36.488533 0 13.653333-3.925333 26.5216-11.741867 38.6048a77.312 77.312 0 0 1-33.655467 28.16 117.179733 117.179733 0 0 1-49.4592 10.069333c-23.210667 0-42.666667-3.3792-58.368-10.1376a81.92 81.92 0 0 1-36.898133-30.549333 86.562133 86.562133 0 0 1-14.097067-46.114133l32.017067-2.798934c1.536 12.834133 5.051733 23.3472 10.581333 31.573334 5.563733 8.226133 14.165333 14.882133 25.838934 19.968a97.962667 97.962667 0 0 0 39.355733 7.611733c12.936533 0 24.3712-1.9456 34.304-5.768533 9.898667-3.857067 17.3056-9.147733 22.152533-15.837867 4.8128-6.724267 7.236267-14.0288 7.236267-21.981867a33.245867 33.245867 0 0 0-6.997333-21.060266c-4.676267-6.0416-12.356267-11.0592-23.108267-15.1552-6.8608-2.696533-22.084267-6.8608-45.6704-12.526934-23.552-5.632-40.072533-10.990933-49.527467-16.008533-12.219733-6.417067-21.367467-14.370133-27.374933-23.8592a58.641067 58.641067 0 0 1-9.0112-31.9488c0-12.936533 3.6864-25.053867 11.025067-36.317867 7.338667-11.264 18.090667-19.797333 32.187733-25.634133a122.197333 122.197333 0 0 1 47.069867-8.738133c19.0464 0 35.805867 3.037867 50.312533 9.181866 14.5408 6.109867 25.7024 15.121067 33.518933 27.0336 7.816533 11.912533 12.014933 25.361067 12.5952 40.413867l-32.529066 2.4576c-1.7408-16.213333-7.68-28.4672-17.783467-36.7616-10.069333-8.260267-24.9856-12.424533-44.680533-12.424533-20.548267 0-35.498667 3.7888-44.885334 11.298133-9.4208 7.543467-14.097067 16.5888-14.097066 27.204267 0 9.216 3.310933 16.7936 9.966933 22.766933 6.519467 5.9392 23.586133 12.049067 51.2 18.295467z m-180.087467 146.5344c-11.264 6.178133-24.4736 9.284267-39.6288 9.284266-22.528 0-39.765333-6.485333-51.712-19.421866-11.946667-12.970667-17.7152-32.187733-17.237333-57.7536l30.6176-4.1984c0.8192 19.592533 4.5056 33.006933 11.025067 40.2432 6.5536 7.236267 15.598933 10.8544 27.136 10.8544 8.4992 0 15.872-1.9456 22.050133-5.870934a30.037333 30.037333 0 0 0 12.765867-15.906133c2.321067-6.724267 3.515733-17.408 3.515733-32.119467v-176.7424h33.928533v174.7968c0 21.469867-2.594133 38.0928-7.7824 49.902934a55.3984 55.3984 0 0 1-24.6784 26.9312z" fill="#34B8FF" p-id="81607"></path></svg>