<?xml version="1.0" standalone="no"?><!DOCTYPE svg PUBLIC "-//W3C//DTD SVG 1.1//EN" "http://www.w3.org/Graphics/SVG/1.1/DTD/svg11.dtd"><svg t="1715647696490" class="icon" viewBox="0 0 2327 1024" version="1.1" xmlns="http://www.w3.org/2000/svg" p-id="37329" width="63.62890625" height="28" xmlns:xlink="http://www.w3.org/1999/xlink"><path d="M302.545455 905.309091c-342.109091-58.181818-384-172.218182-128-342.109091 65.163636-41.890909 123.345455-65.163636 151.272727-58.181818 58.181818 16.290909 58.181818 25.6-4.654546 93.090909s-37.236364 128 65.163637 148.945454c109.381818 25.6 400.290909 23.272727 416.581818-2.327272 6.981818-11.636364 2.327273-65.163636-11.636364-116.363637-13.963636-53.527273-18.618182-116.363636-11.636363-139.636363 18.618182-55.854545 81.454545-62.836364 81.454545-9.309091 0 32.581818 18.618182 34.909091 132.654546 20.945454 74.472727-9.309091 223.418182-44.218182 332.8-76.8s239.709091-62.836364 293.236363-69.818181c93.090909-9.309091 95.418182-6.981818 123.345455 86.10909 32.581818 109.381818 25.6 104.727273 125.672727 62.836364 148.945455-62.836364 200.145455-186.181818 86.109091-216.436364-25.6-6.981818-46.545455-32.581818-46.545455-55.854545 0-34.909091 16.290909-44.218182 88.436364-44.218182 97.745455 0 256 65.163636 304.872727 125.672727 53.527273 65.163636-69.818182 195.490909-290.909091 302.545455-402.618182 197.818182-495.709091 230.4-754.036363 279.272727-139.636364 27.927273-819.2 34.909091-954.181818 11.636364z" fill="#00C0DC" p-id="37330"></path><path d="M1070.545455 975.127273c-90.763636-44.218182-151.272727-51.2-453.818182-53.527273-384-2.327273-528.290909-32.581818-586.472728-123.345455-51.2-76.8-30.254545-83.781818 90.763637-32.581818 530.618182 228.072727 1654.690909 27.927273 2034.036363-360.727272 88.436364-90.763636 128-114.036364 146.618182-95.418182 37.236364 37.236364 32.581818 53.527273-48.872727 144.290909-69.818182 81.454545-316.509091 223.418182-439.854545 251.345454-34.909091 9.309091-118.690909 72.145455-190.836364 141.963637-183.854545 181.527273-351.418182 221.090909-551.563636 128z" fill="#5879CD" p-id="37331"></path><path d="M246.690909 574.836364l-65.163636-27.927273 141.963636-67.490909c76.8-37.236364 146.618182-62.836364 153.6-58.181818 4.654545 6.981818-27.927273 51.2-76.8 95.418181-79.127273 79.127273-90.763636 83.781818-153.6 58.181819zM786.618182 593.454545c-16.290909-16.290909 0-160.581818 25.6-228.072727 18.618182-46.545455 46.545455-58.181818 207.127273-81.454545 102.4-16.290909 262.981818-55.854545 356.072727-86.109091l172.218182-55.854546 53.527272 51.2c58.181818 53.527273 121.018182 158.254545 121.018182 202.472728 0 11.636364-18.618182 23.272727-39.563636 23.272727-23.272727 0-125.672727 27.927273-228.072727 60.509091s-283.927273 74.472727-407.272728 93.090909c-253.672727 37.236364-244.363636 37.236364-260.654545 20.945454zM1845.527273 239.709091c-93.090909-46.545455-97.745455-76.8-11.636364-74.472727 79.127273 0 262.981818 37.236364 211.781818 41.890909-20.945455 0-44.218182 18.618182-53.527272 37.236363-16.290909 44.218182-51.2 41.890909-146.618182-4.654545z" fill="#68D6DF" p-id="37332"></path><path d="M814.545455 360.727273c0-48.872727 118.690909-186.181818 204.8-237.381818 123.345455-74.472727 258.327273-88.436364 395.636363-44.218182 121.018182 39.563636 211.781818 114.036364 172.218182 139.636363-48.872727 30.254545-325.818182 104.727273-470.109091 128-258.327273 39.563636-302.545455 41.890909-302.545454 13.963637z" fill="#CBEBE3" p-id="37333"></path></svg>