<?xml version="1.0" standalone="no"?><!DOCTYPE svg PUBLIC "-//W3C//DTD SVG 1.1//EN" "http://www.w3.org/Graphics/SVG/1.1/DTD/svg11.dtd"><svg t="1715604960872" class="icon" viewBox="0 0 1024 1024" version="1.1" xmlns="http://www.w3.org/2000/svg" p-id="34431" xmlns:xlink="http://www.w3.org/1999/xlink" width="28" height="28"><path d="M880.515873 370.855979c0.406975 68.422674-52.805008 141.169457-124.737841 140.813354s-123.415172-72.339808-123.415172-139.948532 51.838442-139.592429 123.415172-139.948532 124.330866 71.525858 124.737841 139.08371z m0 0" fill="#6B52A2" p-id="34432"></path><path d="M781.620945 463.493666c0.356103 52.60152-47.514333 108.560584-112.274231 108.255353s-111.104178-55.602961-111.104178-107.594019 46.649511-107.339659 111.104178-107.594018 111.918128 54.992498 112.274231 106.83094z m0 0" fill="#6B52A2" p-id="34433"></path><path d="M786.962492 636.763277c0.406975 68.422674-52.85588 141.169457-124.737841 140.813354s-123.415172-72.339808-123.415172-139.948532 51.838442-139.592429 123.415172-139.948532 124.330866 71.525858 124.737841 139.08371z m0 0" fill="#6B52A2" p-id="34434"></path><path d="M472.879527 633.965324c0.406975 68.422674-52.805008 141.169457-124.737841 140.813354s-123.415172-72.339808-123.415172-139.948532 51.78757-139.643301 123.415172-139.948532 124.330866 71.57673 124.737841 139.08371z m0 0" fill="#7058A5" p-id="34435"></path><path d="M384.108103 362.919966C392.70545 448.181231 296.45586 534.154702 227.117492 520.775399c-54.331164-10.530478-86.48219-80.78454-84.447315-136.031398C144.959412 323.392518 191.507179 244.185007 260.94729 243.116697c63.43723-1.220925 117.361419 62.470664 123.160813 119.803269z m0 0" fill="#735DA8" p-id="34436"></path><path d="M462.908639 472.599732c5.443291 56.213423-55.399473 112.986437-99.352774 104.134731-34.338517-6.969447-54.789011-53.262855-53.364599-89.73799 1.526156-40.697501 30.828357-92.535943 74.883402-93.400765 40.087039-0.81395 74.171196 41.20622 77.833971 79.054896z m0 0" fill="#7058A5" p-id="34437"></path><path d="M384.209846 380.11466C380.903175 465.070694 271.019922 518.893139 260.692931 508.718764c-7.885141-7.427294 45.784689-48.582642 55.959064-128.197129 8.851706-69.490983-22.23101-114.766953-11.293557-120.413731C318.68687 253.341944 386.855184 311.488499 384.209846 380.11466z m0 0" fill="#6B52A2" p-id="34438"></path><path d="M667.362711 792.838194h-0.559591c-81.700233-0.406975-138.625863-82.107209-138.625863-155.210095s56.92563-154.80312 138.625863-155.210095h0.559591c81.700233 0 139.08371 81.395002 139.490685 154.243529a167.01237 167.01237 0 0 1-48.328283 116.496597 129.112822 129.112822 0 0 1-91.162402 39.680064z m0-279.795321h-0.356104c-51.177108 0-108.255353 51.533211-108.255353 124.68697s57.027373 124.43261 108.255353 124.686969h0.457847a98.386209 98.386209 0 0 0 69.541855-30.523126 137.761041 137.761041 0 0 0 39.527448-95.079537c-0.610463-73.102886-57.943067-123.873019-109.221918-123.873019zM353.228874 794.669581h-0.559591c-81.700233-0.356103-138.625863-82.056337-138.625863-155.210095s56.92563-154.853992 138.625863-155.210095h0.610463c81.700233 0 139.08371 81.395002 139.490685 154.24353a167.114114 167.114114 0 0 1-48.328283 116.547468 129.06195 129.06195 0 0 1-91.213274 39.629192z m0-279.79532h-0.356103c-51.177108 0-108.255353 51.533211-108.255353 124.686969s57.027373 124.483482 108.255353 124.686969h0.457847a98.386209 98.386209 0 0 0 69.541855-30.523126 137.913657 137.913657 0 0 0 39.425704-94.774305c-0.508719-73.45899-57.790452-124.17825-109.120175-124.178251z" fill="#010101" p-id="34439"></path><path d="M659.528442 833.332207c0.508719 83.022902-64.047692 171.285608-151.292961 170.827761a132.57211 132.57211 0 0 1-78.698793-27.063838 164.672264 164.672264 0 0 1-51.482339-64.047692q22.637985 36.526007 20.959214 34.44026a186.140196 186.140196 0 0 1-38.255652-85.973471c2.390978 17.957772-2.187491-4.476725-2.238362-28.030404 0-80.886283 62.877639-168.487655 149.715932-168.89463s150.784242 86.838293 151.292961 168.742014z m0 0" fill="#735DA8" p-id="34440"></path><path d="M508.845944 1024h-0.763078a148.342392 148.342392 0 0 1-87.652244-30.014407 183.138755 183.138755 0 0 1-23.757166-21.315316l-0.457847 0.305231-9.156937-11.497044a201.452631 201.452631 0 0 1-39.273089-81.903721 52.194545 52.194545 0 0 1-3.154056-16.279001 250.187888 250.187888 0 0 1-1.424413-25.435938c0-86.736549 67.710467-183.698346 164.926623-184.156192h0.712207c97.216156 0 165.435342 96.656565 165.94406 183.850961A199.366884 199.366884 0 0 1 617.050425 976.740027a153.226092 153.226092 0 0 1-108.204481 47.259973z m-97.724875-81.395002a152.056039 152.056039 0 0 0 27.470813 26.656863 117.921009 117.921009 0 0 0 69.643599 24.011526h0.661335a122.346863 122.346863 0 0 0 86.482189-38.103036 170.573402 170.573402 0 0 0 48.887874-117.157931c-0.508719-90.602812-71.729346-153.531323-135.522679-153.531323h-0.457847c-63.640717 0.305231-134.556113 63.488102-134.556113 153.633067a225.311541 225.311541 0 0 0 1.6279 25.435938h0.406975a171.539967 171.539967 0 0 0 14.600229 46.293407l0.610462-0.305231q10.683094 17.245566 15.973769 25.893785c1.424413 2.492722 2.950569 4.934572 4.222366 7.376422z m-49.701823-85.464753h-2.136619a15.261563 15.261563 0 0 0-12.514482 10.479607l27.114711-4.06975a15.261563 15.261563 0 0 0-12.46361-6.155497z" fill="#010101" p-id="34441"></path><path d="M659.528442 568.187987c10.784838 86.024343-60.028814 171.285608-151.292961 170.827761-89.331015-0.457847-160.399026-82.768543-149.766804-169.759451 9.360425-76.307815 79.054896-135.471807 157.702817-131.910776 73.611605 3.357544 134.657857 61.046252 143.407819 130.842466z m0 0" fill="#735DA8" p-id="34442"></path><path d="M508.947687 763.535993h-0.864821a169.352477 169.352477 0 0 1-164.774008-186.903274c10.174375-83.989468 88.160962-149.156342 173.422227-145.290079 80.123205 3.662775 148.03716 65.624721 157.702816 144.170898a170.115555 170.115555 0 0 1-165.689701 188.225942z m0.508719-301.822843c-67.405236 0-127.68841 52.092801-135.82791 118.633216a138.829351 138.829351 0 0 0 134.657857 152.615629h0.661334a135.115704 135.115704 0 0 0 100.5737-46.191664 136.64186 136.64186 0 0 0 34.745492-107.390531 136.794476 136.794476 0 0 0-128.960207-117.514034z" fill="#010101" p-id="34443"></path><path d="M632.769835 380.11466c0.406975 68.422674-52.805008 141.169457-124.737841 140.813354S384.820309 448.639078 384.820309 380.979482s51.634955-139.592429 123.211685-139.948532 124.330866 71.525858 124.737841 139.08371z m0 0" fill="#FFFFFF" p-id="34444"></path><path d="M632.668091 367.396691c10.174375 82.056337-80.78454 165.587958-151.801679 153.42958-50.261414-8.597347-82.259824-64.098564-88.11009-107.644891-9.462169-70.610164 43.291967-158.05892 116.191365-159.890307 60.74102-1.526156 117.005316 56.976502 123.720404 114.105618z m0 0" fill="#735DA8" p-id="34445"></path><path d="M264.915296 77.223508c6.664216-28.132148 99.556262-43.749814 170.268171-10.683094 44.512892 20.806597 90.195837 65.370361 80.886283 88.415322C505.132297 182.121318 418.548363 178.051567 354.297183 151.191217c-35.610313-14.752844-95.333896-49.396592-89.534502-74.018581z m0 0" fill="#7EC463" p-id="34446"></path><path d="M760.865219 531.560236h-0.55959c-81.700233-0.406975-138.625863-82.107209-138.625863-155.210094s56.92563-154.80312 138.625863-155.210095h0.55959c81.700233 0 139.08371 81.395002 139.490685 154.243529a167.114114 167.114114 0 0 1-48.328282 116.547469 129.06195 129.06195 0 0 1-91.162403 39.629191z m0-279.79532h-0.356103c-51.177108 0-108.255353 51.533211-108.255353 124.686969s57.027373 124.43261 108.255353 124.686969h0.457847a98.386209 98.386209 0 0 0 69.541855-30.523125 137.913657 137.913657 0 0 0 39.425704-94.774306c-0.457847-73.408118-57.790452-124.17825-109.120175-124.17825zM261.557752 531.560236h-0.55959C179.297928 531.153261 122.372299 449.453028 122.372299 376.451885S179.297928 221.547022 260.998162 221.140047h0.55959c81.700233 0 139.08371 81.395002 139.490686 154.243529a167.114114 167.114114 0 0 1-48.328283 116.547469 129.06195 129.06195 0 0 1-91.162403 39.629191z m0-279.79532h-0.356103C209.922798 251.917532 152.895425 303.196383 152.895425 376.451885s57.027373 124.330866 108.255352 124.585226h0.457847a98.386209 98.386209 0 0 0 69.541855-30.523126 137.913657 137.913657 0 0 0 39.425705-94.774306c-0.457847-73.306374-57.73958-124.076507-109.069303-124.076506z" fill="#010101" p-id="34447"></path><path d="M513.170053 540.818918h-0.55959c-81.700233-0.406975-138.625863-82.107209-138.625864-155.210095s56.92563-154.80312 138.625864-155.210095h0.610462c81.700233 0 139.032838 81.395002 139.490685 154.243529a167.164986 167.164986 0 0 1-48.328282 116.547469 129.112822 129.112822 0 0 1-91.213275 39.629192z m0-279.79532h-0.356103c-51.177108 0-108.255353 51.533211-108.255353 124.686969s57.027373 124.43261 108.255353 124.686969h0.457847a98.335337 98.335337 0 0 0 69.541855-30.523126 137.913657 137.913657 0 0 0 39.425704-94.774306c-0.508719-73.408118-57.841323-124.17825-109.120175-124.17825z" fill="#010101" p-id="34448"></path><path d="M588.307815 8.648219c-76.307815 52.398033-92.586815 148.749367-71.220627 234.010631 4.781956 19.026082 34.236773 10.988325 29.454816-8.1395-17.754285-70.915396-7.223806-155.210095 57.027374-199.519499 16.075513-11.039197 0.81395-37.543445-15.261563-26.351632z" fill="#010101" p-id="34449"></path><path d="M461.535099 188.632918a310.318446 310.318446 0 0 1-112.986438-23.29932c-11.191813-4.680213-109.069303-46.802126-98.538824-91.569377 1.882259-7.630781 7.885141-18.924338 26.199016-27.979532 36.424264-17.652541 108.255353-19.941776 165.38447 6.715087 45.479457 21.264444 103.168165 71.932833 88.618809 107.950122a38.713498 38.713498 0 0 1-22.434498 20.653982 124.076507 124.076507 0 0 1-46.242535 7.529038zM279.769884 80.682796C279.515525 89.636246 313.599682 117.768394 360.300065 137.354066c51.431467 21.41706 112.833822 25.435938 135.675294 16.075513 4.273238-1.780516 5.748522-3.459288 5.952009-3.968006 3.306672-8.241244-25.893785-46.751254-73.20463-68.880521s-106.01699-21.162701-136.590988-8.088628c-9.055194 3.815391-11.904019 7.122063-12.361866 8.190372z" fill="#010101" p-id="34450"></path></svg>