<?xml version="1.0" standalone="no"?><!DOCTYPE svg PUBLIC "-//W3C//DTD SVG 1.1//EN" "http://www.w3.org/Graphics/SVG/1.1/DTD/svg11.dtd"><svg t="1715597966847" class="icon" viewBox="0 0 1024 1024" version="1.1" xmlns="http://www.w3.org/2000/svg" p-id="12813" xmlns:xlink="http://www.w3.org/1999/xlink" width="28" height="28"><path d="M384 384m-384 0a384 384 0 1 0 768 0 384 384 0 1 0-768 0Z" fill="#F9A7F7" p-id="12814"></path><path d="M550.016 944.896c-14.848 0.064-29.504-3.3024-42.8352-9.8368L219.4752 792.256A95.1296 95.1296 0 0 1 166.4 706.9248v-274.816a94.6368 94.6368 0 0 1 11.52-45.0816v-2.176c1.1072-2.176 2.5152-4.1984 4.1408-6.016a95.7248 95.7248 0 0 1 37.4144-31.744l287.7056-138.6624a96.5568 96.5568 0 0 1 84.736 0L879.616 351.232a95.1488 95.1488 0 0 1 54.0352 85.0368v270.656a95.104 95.104 0 0 1-53.0752 86.9504L592.8512 936.64c-13.44 5.9712-28.096 8.8128-42.8352 8.256z m31.9808-353.1712v277.6512l270.144-133.9072a31.744 31.744 0 0 0 17.5744-28.5696V454.9568l-287.744 136.768h0.0256zM230.336 446.4v260.4992a31.7056 31.7056 0 0 0 17.5808 28.5696l270.144 133.9072V591.0848L230.336 446.4z m37.7152-52.3712l281.9648 142.464 103.2512-49.1776L381.2288 339.456l-113.1776 54.592v-0.0192z m183.8336-88.8576l272.6784 148.48 113.1776-53.6064-273.9648-135.168a32.192 32.192 0 0 0-28.1408 0l-83.7504 40.2944z" fill="#000000" p-id="12815"></path></svg>