<?xml version="1.0" standalone="no"?><!DOCTYPE svg PUBLIC "-//W3C//DTD SVG 1.1//EN" "http://www.w3.org/Graphics/SVG/1.1/DTD/svg11.dtd"><svg t="1715602849003" class="icon" viewBox="0 0 1030 1024" version="1.1" xmlns="http://www.w3.org/2000/svg" p-id="6787" width="48.28125" height="48" xmlns:xlink="http://www.w3.org/1999/xlink"><path d="M390.4 384m-384 0a384 384 0 1 0 768 0 384 384 0 1 0-768 0Z" fill="#90E8B5" p-id="6788"></path><path d="M594.24 166.4c16.9856 0 33.2736 6.7392 45.28 18.752l218.56 218.56A64.0192 64.0192 0 0 1 876.8 448.96V902.4a32 32 0 0 1-32 32H332.8a32 32 0 0 1-32-32V198.4a32 32 0 0 1 32-32h261.44zM556.8 230.4H364.8v640h448V486.4H588.8a32 32 0 0 1-32-32V230.4z m48 480a16 16 0 0 1 16 16v32a16 16 0 0 1-16 16h-160a16 16 0 0 1-16-16v-32a16 16 0 0 1 16-16h160z m128-128a16 16 0 0 1 16 16v32a16 16 0 0 1-16 16h-288a16 16 0 0 1-16-16v-32a16 16 0 0 1 16-16h288z m53.44-160L620.8 256.96V422.4h165.44z" fill="#000000" p-id="6789"></path></svg>