<?xml version="1.0" standalone="no"?><!DOCTYPE svg PUBLIC "-//W3C//DTD SVG 1.1//EN" "http://www.w3.org/Graphics/SVG/1.1/DTD/svg11.dtd"><svg t="1715676306972" class="icon" viewBox="0 0 1024 1024" version="1.1" xmlns="http://www.w3.org/2000/svg" p-id="83865" xmlns:xlink="http://www.w3.org/1999/xlink" width="28" height="28"><path d="M841.607168 89.536512H184.439808c-51.844096 0-93.88032 42.034176-93.88032 93.881344v657.165312c0 51.844096 42.036224 93.882368 93.88032 93.882368h657.168384c51.846144 0 93.88032-42.038272 93.88032-93.882368V183.416832c-0.003072-51.846144-42.037248-93.88032-93.881344-93.88032z" fill="#D2EDFD" p-id="83866"></path><path d="M841.608192 954.944512H184.439808c-63.058944 0-114.36032-51.303424-114.36032-114.362368V183.416832c0-63.058944 51.301376-114.361344 114.36032-114.361344h657.16736c63.056896 0 114.359296 51.3024 114.361344 114.36032v657.166336c-0.001024 63.058944-51.3024 114.362368-114.36032 114.362368zM184.439808 110.016512c-40.472576 0-73.40032 32.927744-73.40032 73.401344v657.165312c0 40.4736 32.92672 73.402368 73.40032 73.402368h657.168384c40.472576 0 73.40032-32.927744 73.40032-73.402368V183.416832c-0.001024-40.472576-32.928768-73.401344-73.401344-73.401344H184.439808z" fill="#24ABFB" p-id="83867"></path><path d="M407.41888 692.296704c23.286784-19.319808 34.92864-48.152576 34.92864-86.454272 0-18.381824-1.787904-34.173952-5.34016-47.305728-3.575808-13.1584-9.67168-24.410112-18.312192-33.808384-8.641536-9.373696-20.375552-17.258496-35.206144-23.655424-14.85312-6.372352-33.717248-12.398592-56.61184-18.036736-15.404032-3.734528-27.803648-7.313408-37.180416-10.681344-9.396224-3.392512-16.616448-7.061504-21.682176-11.000832-5.065728-3.941376-8.36608-8.433664-9.856-13.52192-1.513472-5.065728-2.26816-11.34592-2.26816-18.864128 0-19.5072 5.545984-32.479232 16.616448-38.849536 11.072512-6.392832 28.443648-9.578496 52.119552-9.578496 8.25344 0 17.076224 0.36352 26.474496 1.122304 9.372672 0.75776 18.496512 1.880064 27.321344 3.369984 8.802304 1.513472 16.984064 3.11808 24.502272 4.790272 7.493632 1.695744 13.888512 3.483648 19.136512 5.363712v-62.527488c-10.131456-3.761152-24.018944-7.03488-41.66656-9.856-17.672192-2.820096-36.994048-4.241408-58.034176-4.241408-45.427712 0-79.899648 8.731648-103.3472 26.198016-23.472128 17.46432-35.206144 46.092288-35.206144 85.906432 0 17.281024 1.765376 31.835136 5.34016 43.662336 3.574784 11.828224 9.578496 21.956608 18.01728 30.415872 8.456192 8.43264 19.526656 15.468544 33.23392 21.108736 13.70624 5.638144 30.896128 10.909696 51.546112 15.767552 16.159744 4.148224 29.203456 8.000512 39.146496 11.551744 9.949184 3.572736 17.739776 7.70048 23.37792 12.396544 5.640192 4.698112 9.491456 10.133504 11.55072 16.342016 2.065408 6.188032 3.093504 13.801472 3.093504 22.805504 0 19.914752-5.82144 33.714176-17.46432 41.392128-11.643904 7.701504-30.989312 11.551744-58.011648 11.551744-10.518528 0-21.133312-0.457728-31.83616-1.39776-10.701824-0.940032-21.014528-2.154496-30.963712-3.66592-9.96864-1.514496-19.254272-3.185664-27.892736-5.065728-8.640512-1.880064-15.951872-3.9424-21.957632-6.209536v65.917952c5.639168 1.880064 12.583936 3.57376 20.835328 5.06368 8.25344 1.514496 17.467392 3.00544 27.594752 4.51584 10.153984 1.48992 20.8384 2.612224 32.111616 3.367936s22.714368 1.124352 34.358272 1.124352c51.069952 0.002048 88.246272-9.668608 111.532032-29.014016zM631.601152 467.841024v-56.339456H564.5824v-72.085504h-70.41024v72.085504h-42.24v56.339456h42.24v152.075264c0 19.915776 1.69472 36.349952 5.064704 49.301504 3.392512 12.949504 8.915968 23.079936 16.618496 30.415872 7.701504 7.333888 17.831936 12.397568 30.39232 15.215616 12.608512 2.794496 27.918336 4.217856 45.93152 4.217856 6.416384 0 12.740608-0.277504 19.160064-0.847872 6.372352-0.575488 12.560384-1.216512 18.612224-1.972224v-55.763968a72.22784 72.22784 0 0 1-12.97408 2.244608c-4.539392 0.390144-9.396224 0.57344-14.667776 0.57344-7.881728 0-14.256128-0.661504-19.116032-1.9712-4.903936-1.302528-8.754176-3.85024-11.549696-7.610368-2.840576-3.75808-4.718592-8.823808-5.686272-15.19616-0.91648-6.393856-1.374208-14.461952-1.374208-24.225792V467.841024h67.017728zM814.749696 405.889024c-8.982528 0-17.878016 0.754688-26.7264 2.244608-8.846336 1.513472-17.282048 4.493312-25.350144 9.008128-8.068096 4.513792-15.494144 10.701824-22.278144 18.587648-6.73792 7.883776-12.376064 18.014208-16.869376 30.413824v-54.641664h-70.412288v304.173056h70.412288V534.882304c2.612224-13.157376 6.966272-23.953408 12.925952-32.4096 6.049792-8.43264 12.972032-15.19616 20.903936-20.25984 7.883776-5.090304 16.4096-8.5504 25.578496-10.430464 9.213952-1.878016 18.702336-2.818048 28.466176-2.818048h7.289856l2.290688-63.076352-6.23104 0.001024z" fill="#24ABFB" p-id="83868"></path><path d="M831.983616 713.97888c5.779456-1.124352 10.405888-3.2768 13.754368-6.464512 3.392512-3.208192 5.777408-7.701504 7.061504-13.52192 0.889856-3.904512 1.972224-12.791808 1.972224-23.379968 0-9.76384-0.642048-17.647616-1.972224-23.652352-1.284096-6.00576-3.66592-10.611712-7.061504-13.799424-3.34848-3.21024-7.974912-5.270528-13.754368-6.21056-5.866496-0.940032-13.246464-1.39776-22.278144-1.39776-9.350144 0-16.960512 0.457728-22.828032 1.39776-5.776384 0.940032-10.405888 3.002368-13.75232 6.21056-3.392512 3.185664-5.685248 7.789568-6.784 13.799424-1.099776 6.002688-1.695744 13.888512-1.695744 23.652352s0.595968 17.557504 1.695744 23.379968c1.098752 5.820416 3.392512 10.313728 6.784 13.52192 3.346432 3.185664 7.975936 5.34016 13.75232 6.464512 5.86752 1.123328 13.477888 1.695744 22.828032 1.695744 9.033728 0.002048 16.413696-0.572416 22.278144-1.695744z" fill="#24ABFB" p-id="83869"></path></svg>