<?xml version="1.0" standalone="no"?><!DOCTYPE svg PUBLIC "-//W3C//DTD SVG 1.1//EN" "http://www.w3.org/Graphics/SVG/1.1/DTD/svg11.dtd"><svg t="1715689673721" class="icon" viewBox="0 0 1024 1024" version="1.1" xmlns="http://www.w3.org/2000/svg" p-id="23675" xmlns:xlink="http://www.w3.org/1999/xlink" width="28" height="28"><path d="M548.5 249.2c1-3.4 44.4-149.3 157.8-179.6 0 0-71.9 120.5-34.5 206.4s-167.7 115.5-123.3-26.8z" fill="#548B2E" p-id="23676"></path><path d="M484.4 272.4s11.3-128.9-26.1-176.8c0 0 167.7 76.2 100.7 254-11.9 30.6-71.1 70.8-74.6-77.2z" fill="#7EB345" p-id="23677"></path><path d="M510.5 364.7s81-168.4 292.3-151.5c0 0-126.8 74.7-131 140.9s-210.7 107.8-161.3 10.6z" fill="#548B2E" p-id="23678"></path><path d="M531.6 419.6s90.3-88.2 243.6-5.3c0 0-146.9 0-160.6 34.3-1.9 4-94.9-15.6-83-29z" fill="#7CB03D" p-id="23679"></path><path d="M428.9 406.8s5.3-85.1-59.7-143.7c0 0 117.3 4.2 128.9 159.6 0 7.7-69.1-3.3-69.2-15.9z" fill="#548B2E" p-id="23680"></path><path d="M500.5 417s100.2-158.8 352.4-93.3c0 0-221.9 45.8-265.2 126.6-4.2 7.9-98.1-19.1-87.2-33.3z" fill="#8FC240" p-id="23681"></path><path d="M467.2 875.9c-22.3 0-45.8-3.7-69.6-11-60.1-18.4-101-55.6-121.5-110.6-20.3-54.4-19.5-124.1 2.1-207 10-38.3 27-72.5 50.4-101.7 18.8-23.5 41.9-43.7 68.4-60.2 42.7-26.5 81.2-35.1 88.5-36.1 4.5-1.3 43.6-12.4 70.7-12.4 11.1 0 18.8 1.9 23.6 5.7 9.2 7.4 42.4 45.4 67.6 102.6 14.5 32.8 24.2 66.7 28.9 100.8 5.7 41.6 3.8 83.4-5.6 124.2-15.8 68.5-42.4 121-79.3 156.2-34.2 32.8-76 49.5-124.2 49.5z" fill="#FCDC6B" p-id="23682"></path><path d="M556.3 341.8c8.9 0 16.3 1.3 20.5 4.6C594 360.1 706.4 493.6 666 668.9c-32.4 140.8-109 201.9-198.8 201.9-22.1 0-45-3.7-68.2-10.8-117.7-36.1-159-146.8-116-311.5s200.1-194.4 203.6-194.4c0.1 0 42-12.3 69.7-12.3m0-10c-27.2 0-65.9 10.8-71.8 12.5-4.9 0.7-15.8 3.3-28.3 7.5-14.8 5-37.5 14.1-61.8 29.2-27 16.8-50.5 37.4-69.7 61.3-23.9 29.8-41.2 64.6-51.4 103.6-22 84-22.6 154.6-2 210 10.4 27.9 26.2 51.7 47.1 70.7 20.9 19.1 47 33.5 77.6 42.9 24.4 7.5 48.3 11.3 71.1 11.3 24 0 46.9-4.2 68-12.4 21.9-8.5 42-21.5 59.8-38.5 37.6-35.9 64.7-89.3 80.7-158.7 9.5-41.5 11.5-83.9 5.7-126-4.7-34.5-14.6-68.9-29.3-102.1-25.2-56.9-58-95.6-69.1-104.4-5.5-4.7-14.3-6.9-26.6-6.9z" fill="#EDAD51" p-id="23683"></path><path d="M656.5 704.2c1.5-4.9 3-9.9 4.4-15.1l-19.4 10-22.9-44.5 44.5-22.9 7.4 14.4c1.8-11.1 3-22.1 3.6-32.8l-6.1 3.1-22.9-44.5 27.7-14.3c-0.4-4.1-0.9-8.1-1.5-12L640 561.8l-22.9-44.5 43.5-22.4c-16.5-56.8-44.1-100.8-63.5-126l3.2 6.2-44.6 22.9-22.9-44.5 22.8-11.7c-12 0.1-26.4 2.4-39 5l0.9 1.8-44.5 22.9-6.4-12.4c-3.3 1-7 2.2-10.9 3.6l7.2 14-44.5 22.9-8.3-16.2c-3.2 1.8-6.5 3.7-9.8 5.8l8 15.6-44.5 22.9-4.1-7.9c-2.9 2.6-5.7 5.4-8.6 8.2l2.5 4.9-13.8 7.1c-5.9 6.7-11.5 13.8-16.9 21.5l35.9-18.5 22.9 44.5-44.5 22.9-20.5-39.8c-2.4 3.7-4.7 7.5-6.9 11.4l17.3 33.5-40.6 20.9c-1.2 4-2.4 8-3.5 12.1-0.9 3.5-1.8 7-2.6 10.4l20.2 39.3L270 614c-0.6 4.6-1.1 9.1-1.6 13.6l37.4-19.2 22.9 44.5-44.5 22.9-17-33.1c-0.5 8-0.7 15.8-0.7 23.5l7.6 14.9-7 3.6c0.3 4.1 0.6 8.2 1 12.3l11.2-5.8 22.9 44.5-23.2 11.7c1.2 3.6 2.6 7.2 4 10.7l24.4-12.5 22.9 44.5-21.9 11.3c2.5 3 5 6 7.7 8.8l19.4-10 21.6 42c5.5 3.1 11.2 6 17.2 8.6l-0.6-1.2 44.5-22.9 21.7 42.3c9 1.2 18 1.8 26.8 1.8l34.2-17.6 6.8 13.2c3.8-0.9 7.5-1.8 11.3-3l-7.9-15.4 44.5-22.9 8.7 16.9c3.2-2.1 6.3-4.4 9.3-6.7l-7.9-15.3 44.5-22.9 0.3 0.6c4.9-6.4 9.6-13.3 14-20.7l-9.4 4.8-22.9-44.5 44.5-22.9 9.6 18.6c1.9-4.6 3.7-9.4 5.4-14.3l-4.9-9.5 9.7-5z m1.4-82.6l-44.5 22.9-22.8-44.5 44.5-22.9 22.8 44.5zM466 651.3l-44.5 22.9-22.9-44.5 44.5-22.9 22.9 44.5zM425.2 547l44.5-22.9 22.9 44.5-44.5 22.9-22.9-44.5z m28.1 54.6l44.5-22.9 22.9 44.5-44.5 22.9-22.9-44.5z m72.5 31.7l22.9 44.5-44.5 22.9-22.9-44.5 44.5-22.9z m-17.9-59.8l44.5-22.9 22.9 44.5-44.5 22.9-22.9-44.5z m26.5-82.7l44.5-22.9 22.9 44.5-44.5 22.9-22.9-44.5z m12.8 49.7l-44.5 22.9-22.9-44.5 44.5-22.9 22.9 44.5z m-72.6-31.7l-22.9-44.5 44.5-22.9 22.9 44.5-44.5 22.9z m-10.1 5.2L420 536.9l-22.9-44.5 44.5-22.9 22.9 44.5zM438 596.7l-44.5 22.9-22.9-44.6 44.5-22.9 22.9 44.6z m-26.6 82.6l-44.5 22.9-22.9-44.5 44.5-22.9 22.9 44.5z m5.2 10.2l22.9 44.5-44.5 22.8-22.9-44.5 44.5-22.8z m10.1-5.2l44.5-22.9 22.9 44.5-44.5 22.9-22.9-44.5z m72.6 31.7l22.9 44.5-44.5 22.9-22.9-44.5 44.5-22.9z m10.1-5.2l44.5-22.9 22.9 44.5-44.5 22.9-22.9-44.5z m26.6-82.7l44.5-22.9 22.9 44.5-44.5 22.9-22.9-44.5z m93.9-61.1l-44.5 22.9-22.9-44.5 44.5-22.9 22.9 44.5z m26.5-82.7l-44.5 22.9-22.9-44.5 44.5-22.9 22.9 44.5z m-51-99.1l22.9 44.5-44.5 22.9-22.9-44.5 44.5-22.9z m-31.7 72.6l-44.5 22.9-22.9-44.5 44.5-22.9 22.9 44.5z m-51-99.1l22.9 44.5-44.5 22.9-22.9-44.5 44.5-22.9z m-54.6 28.1l22.9 44.5-44.5 22.9-22.9-44.5 44.5-22.9z m-99.1 51l44.5-22.9 22.9 44.5-44.5 22.9-22.9-44.5z m18 59.8l22.9 44.5-44.5 22.9-22.9-44.5 44.5-22.9z m-99.1 50.9l44.5-22.9 22.9 44.5-44.5 22.9-22.9-44.5z m28.1 54.6l44.5-22.9 22.9 44.5-44.5 22.9-22.9-44.5z m-26.5 82.7l44.5-22.9 22.9 44.5-44.5 22.9-22.9-44.5z m28 54.6l44.5-22.9 22.9 44.5-44.5 22.9-22.9-44.5z m51 99.1L345.6 795l44.5-22.9 22.9 44.5-44.5 22.9z m31.7-72.6l44.5-22.9 22.9 44.5-44.5 22.9-22.9-44.5z m51 99.1l-22.9-44.5 44.5-22.9 22.9 44.5-44.5 22.9z m54.6-28l-22.9-44.5 44.5-22.9 22.9 44.5-44.5 22.9z m99.1-51l-44.5 22.9-22.9-44.5 44.5-22.9 22.9 44.5z m-18-59.8L564 682.7l44.5-22.9 22.9 44.5-44.5 22.9z" fill="#F1C006" opacity=".42" p-id="23684"></path><path d="M548.5 249.2c1-3.4 44.4-149.3 157.8-179.6 0 0-71.9 120.5-34.5 206.4s-167.7 115.5-123.3-26.8z" fill="#548B2E" p-id="23685"></path><path d="M484.4 272.4s11.3-128.9-26.1-176.8c0 0 167.7 76.2 100.7 254-11.9 30.6-71.1 70.8-74.6-77.2z" fill="#7EB345" p-id="23686"></path><path d="M510.5 364.7s81-168.4 292.3-151.5c0 0-126.8 74.7-131 140.9s-210.7 107.8-161.3 10.6z" fill="#548B2E" p-id="23687"></path><path d="M433 371.7c-6.3-6.8-5.3-5.5-14.2-8-15.8-4.5-42-6.3-63.8 17.2-42.9 46.5 36 103.8 36 103.8s-5.7-54.1 2.9-68.8c8.5-14.7 31.6 14.2 43.6 11.1 11.4-2.9 39.4-7.5-4.5-55.3z" fill="#8FC240" p-id="23688"></path><path d="M531.6 419.6s90.3-88.2 243.6-5.3c0 0-146.9 0-160.6 34.3-1.9 4-94.9-15.6-83-29z" fill="#7CB03D" p-id="23689"></path><path d="M417.6 406.8s5.3-85.1-59.7-143.7c0 0 117.3 4.2 128.9 159.6 0 7.7-69.1-3.3-69.2-15.9z" fill="#548B2E" p-id="23690"></path><path d="M448.3 319.3s-14.8-115.7-54.4-144.2c0 0 162.9 46.7 128.4 242.5 0 0-45.3 13.4-58.7-7.7-13.4-21.2-15.3-90.6-15.3-90.6z" fill="#ABC15B" p-id="23691"></path><path d="M500.5 417s100.2-158.8 352.4-93.3c0 0-221.9 45.8-265.2 126.6-4.2 7.9-98.1-19.1-87.2-33.3z" fill="#8FC240" p-id="23692"></path><path d="M607.1 417.9s39.7-1.8 32 34.1c-7.6 36-66.7 27.3-66.7 27.3s19.3-10.7 20-20.7c0.7-10-20.6-1.3-25-7.2-4.4-5.8-0.7-29.2 39.7-33.5z" fill="#548B2E" p-id="23693"></path><path d="M553 411.9s39.4 5.1 25.6 39.2-70.4 15.3-70.4 15.3 20.9-7.2 23.3-16.9c2.4-9.7-20-4.9-23.4-11.5-3.4-6.6 4.3-28.9 44.9-26.1z" fill="#7EB345" p-id="23694"></path><path d="M284.883 491.075l173.98 27.892-2.787 17.379-173.98-27.893zM299.569 511.282L456.17 536.39l-2.786 17.378-156.601-25.107zM314.146 531.466l121.747 19.519-2.786 17.378-121.747-19.518zM328.724 551.65l86.99 13.947-2.786 17.378-86.99-13.946zM664.959 569.823l-173.98-27.893 2.786-17.378 173.98 27.893zM644.793 584.441L488.19 559.335l2.786-17.378 156.602 25.106zM624.539 599.04L502.792 579.52l2.787-17.378 121.746 19.518zM604.384 613.654l-86.99-13.947 2.786-17.378 86.99 13.946z" p-id="23695"></path><path d="M286.208 483.11l382.815 61.373-1.773 11.059-382.815-61.373z" p-id="23696"></path><path d="M319.168 507.037l12.047 1.931-2.422 15.108-12.047-1.932zM343.364 510.943l12.046 1.931-2.422 15.108-12.046-1.932zM328.873 524.044l12.047 1.931-2.422 15.108-12.047-1.932zM353.069 527.95l12.046 1.931-2.422 15.108-12.046-1.932z" fill="#333333" p-id="23697"></path><path d="M338.563 541.15l12.046 1.931-2.422 15.107-12.046-1.931zM362.66 545.04l12.046 1.931-2.422 15.107-12.047-1.93z" fill="#333333" p-id="23698"></path><path d="M518.365 540.954l12.046 1.931-2.422 15.108-12.046-1.932zM542.461 544.844l12.047 1.932-2.422 15.107-12.047-1.931z" fill="#333333" p-id="23699"></path><path d="M527.971 557.945l12.047 1.931-2.422 15.108-12.047-1.932zM552.167 561.851l12.046 1.932-2.422 15.107-12.046-1.931z" fill="#333333" p-id="23700"></path><path d="M537.66 575.051l12.047 1.931-2.422 15.107-12.046-1.93zM561.872 578.858l12.046 1.932-2.422 15.107-12.046-1.932z" fill="#333333" p-id="23701"></path><path d="M827.5 605.7l-10.2-13.9c-1.2-1.6-2.9-2.8-4.9-3.4L720 563.1c-2.3-0.6-4.8 0.6-5.6 2.9l-3.6 9.9c-2.3 6.3-7 11.4-13.2 14.2L398.1 723.8l11.7 26.2 307.6-137.4c3.5-1.6 7.3-2.3 11.2-2.1l84.7 3.7c1.6 0.1 3.2-0.2 4.6-0.9l8.6-3.8c1.4-0.7 1.9-2.5 1-3.8z" fill="#8D8C92" p-id="23702"></path><path d="M695.59 591.023l11.7 26.206-297.488 132.828-11.7-26.205z" fill="#353133" p-id="23703"></path><path d="M266.692 904.077l3.18 7.122-5.843 2.61-3.18-7.123zM181.001 714.412l3.058 6.848-3.47 1.55-3.057-6.849z" fill="#96979C" p-id="23704"></path><path d="M478.6 711.9l0.2 0.4c1.1 11.1-5.3 14.7-5.3 14.7s-199 175.6-205.9 180.6c-6.9 5-7.4-3.4-7.4-3.4L302.8 775 179 718.5s-5.8-6.1 2.6-7.8c8.3-1.7 272.4-28.4 272.4-28.4s7.1-2.3 14.6 6.4c0.1 0.1 8.6 10.8 10 23.2z" fill="#96979C" p-id="23705"></path><path d="M345.4 762l-46.7 98.2 164.8-151z" fill="#353535" p-id="23706"></path><path d="M439.2 736.7l4.2-1.7v-0.1l38.1-16.7 0.2 0.4c1.1 11.1-5.3 14.7-5.3 14.7s-199 175.6-205.9 180.6c-6.9 5-7.4-3.4-7.4-3.4l42.6-129.2-123.8-56.5s-5.8-6.1 2.6-7.8c8.3-1.7 272.4-28.4 272.4-28.4s7.1-2.3 14.6 6.4l-42.4 18.5" fill="#E4E6E8" p-id="23707"></path><path d="M829.1 609.3l-10.2-13.9c-1.2-1.6-2.9-2.8-4.9-3.4l-92.4-25.3c-2.3-0.6-4.8 0.6-5.6 2.9l-3.6 9.9c-2.3 6.3-7 11.4-13.2 14.2L399.7 727.5l11.7 26.2L719 616.3c3.5-1.6 7.3-2.3 11.2-2.1l84.7 3.7c1.6 0.1 3.2-0.2 4.6-0.9l8.6-3.8c1.5-0.7 1.9-2.6 1-3.9z" fill="#E4E6E8" p-id="23708"></path><path d="M697.255 594.626l11.701 26.206L411.468 753.66l-11.7-26.206z" fill="#484647" p-id="23709"></path><path d="M362.9 812.4m-4.8 0a4.8 4.8 0 1 0 9.6 0 4.8 4.8 0 1 0-9.6 0Z" fill="#353535" p-id="23710"></path><path d="M345.8 827.7m-4.8 0a4.8 4.8 0 1 0 9.6 0 4.8 4.8 0 1 0-9.6 0Z" fill="#353535" p-id="23711"></path><path d="M328.8 843.2m-4.8 0a4.8 4.8 0 1 0 9.6 0 4.8 4.8 0 1 0-9.6 0Z" fill="#353535" p-id="23712"></path><path d="M325.1 799.1l-18.7-41.9c-1.1-2.5 0-5.5 2.5-6.6l9.7-4.3c2.5-1.1 5.5 0 6.6 2.5l18.7 41.9c1.1 2.5 0 5.5-2.5 6.6l-9.7 4.3c-2.5 1.2-5.5 0.1-6.6-2.5zM367.1 780.4l-18.7-41.9c-1.1-2.5 0-5.5 2.5-6.6l9.7-4.3c2.5-1.1 5.5 0 6.6 2.5l18.7 41.9c1.1 2.5 0 5.5-2.5 6.6l-9.7 4.3c-2.5 1.1-5.5 0-6.6-2.5zM400.6 760.3L385.7 727c-1.1-2.5 0-5.5 2.5-6.6l6.5-2.9c2.5-1.1 5.5 0 6.6 2.5l14.9 33.3c1.1 2.5 0 5.5-2.5 6.6l-6.5 2.9c-2.5 1.2-5.5 0-6.6-2.5z" fill="#353535" p-id="23713"></path><path d="M735.6 580.7m-3.5 0a3.5 3.5 0 1 0 7 0 3.5 3.5 0 1 0-7 0Z" fill="#353535" p-id="23714"></path><path d="M750.1 584.6m-3.5 0a3.5 3.5 0 1 0 7 0 3.5 3.5 0 1 0-7 0Z" fill="#353535" p-id="23715"></path><path d="M764.6 588.5m-3.5 0a3.5 3.5 0 1 0 7 0 3.5 3.5 0 1 0-7 0Z" fill="#353535" p-id="23716"></path><path d="M779.1 592.4m-3.5 0a3.5 3.5 0 1 0 7 0 3.5 3.5 0 1 0-7 0Z" fill="#353535" p-id="23717"></path><path d="M793.5 596.3m-3.5 0a3.5 3.5 0 1 0 7 0 3.5 3.5 0 1 0-7 0Z" fill="#353535" p-id="23718"></path><path d="M433 371.7c-6.3-6.8-5.3-5.5-14.2-8-15.8-4.5-42-6.3-63.8 17.2-42.9 46.5 36 103.8 36 103.8s-5.7-54.1 2.9-68.8c8.5-14.7 31.6 14.2 43.6 11.1 11.4-2.9 39.4-7.5-4.5-55.3z" fill="#8FC240" p-id="23719"></path><path d="M458.3 372.7s-70.9-17.4-70.4 45.9 107 79.9 107 79.9-30-27.7-27.6-44.5c2.4-16.8 33.6-9.9 43.5-17.4s16.8-35.7-52.5-63.9z" fill="#7EB345" p-id="23720"></path></svg>