<?xml version="1.0" standalone="no"?><!DOCTYPE svg PUBLIC "-//W3C//DTD SVG 1.1//EN" "http://www.w3.org/Graphics/SVG/1.1/DTD/svg11.dtd"><svg class="icon" width="200px" height="200.00px" viewBox="0 0 1024 1024" version="1.1" xmlns="http://www.w3.org/2000/svg"><path d="M693.577143 0a36.571429 36.571429 0 0 1 25.819428 10.752l252.781715 252.781714a36.571429 36.571429 0 0 1 10.678857 25.819429V950.857143a73.142857 73.142857 0 0 1-73.142857 73.142857V377.124571H642.304a36.571429 36.571429 0 0 1-36.571429-36.571428V73.142857H114.285714v877.714286h868.571429a73.142857 73.142857 0 0 1-73.142857 73.142857H77.714286a36.571429 36.571429 0 0 1-36.571429-36.571429V36.571429A36.571429 36.571429 0 0 1 77.714286 0h615.862857z m37.888 438.857143a73.142857 73.142857 0 0 1-73.142857 73.142857h-475.428572a73.142857 73.142857 0 0 1 73.142857-73.142857h475.428572zM546.194286 596.553143v193.828571c0 33.133714-6.948571 58.075429-21.430857 75.117715-16.457143 18.285714-41.691429 27.062857-75.483429 27.062857-29.769143 0-52.955429-8.484571-68.754286-25.6-16.091429-16.969143-24.064-40.082286-24.064-68.900572v-16.822857h44.470857c9.069714 0 16.457143 7.314286 16.457143 16.384 0 27.428571 10.166857 39.350857 32.621715 39.350857 12.580571 0 21.357714-3.657143 26.697142-10.386285 5.558857-7.168 8.630857-19.748571 8.630858-37.814858V649.508571c0-29.257143 23.698286-52.882286 52.882285-52.882285h8.045715z m150.089143-5.705143c34.157714 0 61.074286 7.094857 80.603428 21.577143 21.211429 15.725714 33.426286 40.228571 36.278857 72.411428l0.731429 8.630858H754.285714l-1.389714-6.217143c-3.364571-14.994286-9.654857-25.746286-18.066286-31.890286-8.265143-6.363429-21.796571-9.581714-40.667428-9.581714-16.384 0-28.086857 2.121143-35.84 6.290285-8.777143 4.388571-12.726857 11.117714-12.726857 21.504 0 8.630857 4.608 15.579429 14.994285 21.065143 5.339429 2.852571 21.430857 8.630857 45.494857 16.310857 36.205714 11.190857 61.586286 20.772571 73.581715 27.648 26.404571 15.798857 39.862857 38.034286 39.862857 66.267429 0 27.209143-10.898286 49.225143-32.182857 65.024-20.992 15.067429-50.029714 22.674286-86.308572 22.674286-35.401143 0-63.488-6.948571-83.821714-21.065143-25.380571-17.773714-39.058286-45.568-41.106286-82.724572l-0.512-8.484571h59.977143l1.024 6.875429c2.413714 15.872 7.314286 27.501714 14.555429 35.254857l4.608 4.096c9.654857 6.729143 24.429714 10.24 44.397714 10.386285h0.877714c18.651429 0 33.499429-3.145143 43.812572-8.996571 9.362286-5.705143 13.458286-11.995429 13.604571-19.894857 0-11.629714-6.729143-20.626286-21.357714-27.940572a540.306286 540.306286 0 0 0-52.297143-17.627428c-34.889143-11.117714-55.954286-18.797714-64.658286-23.771429a68.827429 68.827429 0 0 1-35.620571-62.390857 72.411429 72.411429 0 0 1 26.331428-58.075428l8.045715-5.924572 0.585143-0.438857c20.187429-13.897143 45.348571-20.845714 75.849142-20.992h1.097143z m-182.125715-339.382857a73.142857 73.142857 0 0 1-73.142857 73.142857h-258.194286a73.142857 73.142857 0 0 1 73.142858-73.142857h258.194285z m164.571429-177.883429v230.4h230.4l-230.4-230.4z" fill="#3889FF" /></svg>