<?xml version="1.0" standalone="no"?><!DOCTYPE svg PUBLIC "-//W3C//DTD SVG 1.1//EN" "http://www.w3.org/Graphics/SVG/1.1/DTD/svg11.dtd"><svg t="1715560728496" class="icon" viewBox="0 0 1024 1024" version="1.1" xmlns="http://www.w3.org/2000/svg" p-id="6585" xmlns:xlink="http://www.w3.org/1999/xlink" width="200" height="200"><path d="M834.56 207.36H404.48c-21.504 0-35.84 14.336-35.84 35.84v35.84c0 21.504 14.336 35.84 35.84 35.84h430.08c21.504 0 35.84-14.336 35.84-35.84v-35.84c0-21.504-14.336-35.84-35.84-35.84z m-609.28 0h-35.84c-19.456 0-35.84 16.384-35.84 35.84v35.84c0 19.456 16.384 35.84 35.84 35.84h35.84c19.456 0 35.84-16.384 35.84-35.84v-35.84c0-18.432-17.408-35.84-35.84-35.84z m0 250.88h-35.84c-19.456 0-35.84 16.384-35.84 35.84v35.84c0 19.456 16.384 35.84 35.84 35.84h35.84c19.456 0 35.84-16.384 35.84-35.84v-35.84c0-18.432-17.408-35.84-35.84-35.84z m609.28 0H404.48c-21.504 0-35.84 14.336-35.84 35.84v35.84c0 21.504 14.336 35.84 35.84 35.84h430.08c21.504 0 35.84-14.336 35.84-35.84v-35.84c0-21.504-14.336-35.84-35.84-35.84z m-609.28 250.88h-35.84c-19.456 0-35.84 16.384-35.84 35.84v35.84c0 19.456 16.384 35.84 35.84 35.84h35.84c19.456 0 35.84-16.384 35.84-35.84v-35.84c0-18.432-17.408-35.84-35.84-35.84z m609.28 0H404.48c-21.504 0-35.84 14.336-35.84 35.84v35.84c0 21.504 14.336 35.84 35.84 35.84h430.08c21.504 0 35.84-14.336 35.84-35.84v-35.84c0-21.504-14.336-35.84-35.84-35.84z" fill="#3ACFA1" p-id="6586"></path></svg>